<svg xmlns="http://www.w3.org/2000/svg" fill="#070D01" viewBox="0 0 64 64"><style>@media (prefers-color-scheme:dark){path{fill:#EADAC0}}</style><path d="m47 32-6.53-13.06c-3.33 2.6-4.6 8.18-6 13.97L39.5 44.6l3.9 9.05c2.77-3.68 5.9-8.27 8.17-12.5L47 32ZM19.1 45.26c3.22 0 5.33-1.57 6.85-4.03l2.14-4.95c2.44-7.73 3.3-18.31 9.75-22.6L32 2 17 32l-4.9 9.79a8.5 8.5 0 0 0 7 3.47ZM54.05 46.1c-2.68 4.5-5.86 9.04-8.53 12.48L47 62h15l-7.95-15.9ZM19.25 50.93c-3.65 0-7.07-1.29-9.72-4L2 62h15l4.86-11.27c-.81.13-1.68.2-2.61.2Z"/></svg>