<svg xmlns="http://www.w3.org/2000/svg" xml:space="preserve" fill="#181a1b" viewBox="0 0 2000 2000"><style>@media (prefers-color-scheme:dark){path{fill:#f5f5f4}}</style><path d="m1500 1000-217.7-435.4c-111.03 86.62-153.16 272.75-200.28 465.69L1250 1420l130.05 301.72c92.19-122.76 196.49-275.86 272.37-416.87L1500 1000zm-930.27 441.94c107.63 0 177.9-52.27 228.65-134.17l71.14-165.04c81.48-257.87 109.94-610.5 325.03-753.64L1000 0 500 1000l-163.14 326.28c59.64 78.62 142.03 115.66 232.87 115.66zm1165.13 27.78c-89.14 150.26-195.29 301.53-284.03 416.21L1500 2000h500l-265.14-530.28zM574.91 1631.15c-121.57 0-235.61-43.02-323.78-133.42L0 2000h500l161.99-375.81c-27.06 4.56-56.02 6.96-87.08 6.96z"/></svg>