<svg xmlns="http://www.w3.org/2000/svg" viewBox="0 0 800 418">
    <style>@media (prefers-color-scheme:dark){path{fill:#f5f5f4}}</style>
    <path fill="#181a1b"
        d="m220 209-16.3-32.7c-8.4 6.5-11.5 20.5-15 35l12.6 29.2 9.7 22.6c7-9.2 14.7-20.7 20.4-31.2L220 209Zm-69.8 33.1c8.1 0 13.4-3.9 17.2-10l5.3-12.4c6.1-19.3 8.3-45.8 24.4-56.5L182.5 134 145 209l-12.2 24.5a21.2 21.2 0 0 0 17.4 8.6Zm87.4 2.1a321.3 321.3 0 0 1-21.3 31.2l3.7 8.6h37.5l-19.9-39.8Zm-87 12.1c-9.1 0-17.7-3.2-24.3-10L107.5 284H145l12.1-28.2c-2 .4-4.2.5-6.5.5Z" />
    <path fill="#181a1b"
        d="m299.9 195-10.3 27.5h-1.1l10.6-28.4h1l-.2.9Zm10 27.5L299.6 195l-.2-1h1l10.6 28.5h-1Zm-3-9.6v1.1h-14.3v-1H307Zm8.6-18.8h9.1c1.8 0 3.4.3 4.8 1a7.4 7.4 0 0 1 4.5 7.2 7.8 7.8 0 0 1-6.6 7.8l-.6.2h-11v-1h9.9c1.6 0 3-.4 4-1 1.1-.7 2-1.6 2.5-2.7.5-1 .8-2.2.8-3.3a7 7 0 0 0-1-3.9c-.7-1-1.7-1.9-3-2.4a9.4 9.4 0 0 0-4.3-.9h-8v27.4h-1v-28.4Zm18.5 28.4-7.8-12.5h1.2l7.7 12.2v.3h-1Zm14.8-28.4v28.4h-1v-28.4h1Zm10.4 0v1h-21.8v-1h21.8Zm24.6 13.2v1.1h-19.1v-1h19.1Zm-18.6-13.2v28.4h-1v-28.4h1Zm19.2 0v28.4h-1v-28.4h1Zm26 0h1v19.2c0 2.2-.4 4-1.3 5.4a8 8 0 0 1-3.5 3.1c-1.4.7-3 1-5 1a12 12 0 0 1-5-1 8.1 8.1 0 0 1-3.4-3.1 11 11 0 0 1-1.3-5.4v-19.2h1.1v19.2a9 9 0 0 0 1.1 4.7 7.5 7.5 0 0 0 3.1 2.9 10.6 10.6 0 0 0 8.9 0 7.4 7.4 0 0 0 3-3 9 9 0 0 0 1.2-4.6v-19.2Zm8.4 0h9c1.9 0 3.5.3 4.9 1a7.4 7.4 0 0 1 4.5 7.2 7.8 7.8 0 0 1-6.6 7.8l-.7.2h-10.8v-1h9.7c1.7 0 3-.4 4.1-1a7.4 7.4 0 0 0 3.3-6 7 7 0 0 0-1-3.9c-.7-1-1.7-1.9-3-2.4a9.4 9.4 0 0 0-4.3-.9h-8v27.4h-1v-28.4Zm18.5 28.4-7.8-12.5h1.2l7.7 12.2v.3h-1.1Zm31.1-7.5-.2-1.3c-.2-.3-.4-.7-.8-1a19.7 19.7 0 0 0-4.1-2c-1.2-.3-2.4-.8-3.6-1.3a16 16 0 0 1-3-1.9c-1-.7-1.7-1.5-2.2-2.5a6 6 0 0 1-.8-3.3c0-1.3.2-2.4.8-3.3.5-1 1.3-1.9 2.3-2.6a11 11 0 0 1 3.4-1.6 16 16 0 0 1 9.9.6 8 8 0 0 1 5.1 7.7h-6.8c0-.7-.2-1.3-.5-1.9a3 3 0 0 0-1.3-1.3c-.5-.3-1.3-.5-2.2-.5-.8 0-1.5.2-2.1.4a3 3 0 0 0-1.4 1c-.3.5-.4 1-.4 1.5l.3 1.2 1 1 1.7.8 2.2.8c1.5.5 2.9 1 4 1.6 1.2.6 2.2 1.3 3 2a7.4 7.4 0 0 1 2.5 5.8c0 1.3-.2 2.4-.7 3.4a7 7 0 0 1-2.2 2.5c-.9.7-2 1.2-3.3 1.6a16.4 16.4 0 0 1-8.6 0c-1.4-.4-2.7-1-3.8-1.8a9 9 0 0 1-2.8-3c-.7-1.2-1-2.6-1-4.3h6.9c0 .8 0 1.5.3 2 .2.7.5 1.1 1 1.5.4.3 1 .6 1.6.7.6.2 1.3.2 2.1.2a5 5 0 0 0 2.1-.3c.6-.3 1-.6 1.2-1 .2-.5.4-1 .4-1.5Zm30 2.2v5.3h-15.2v-5.3h15.1Zm-12.8-23.1v28.4h-6.9v-28.4h7Zm10.8 11.3v5h-13.2v-5h13.2Zm2-11.3v5.3h-15.2V194h15.2Zm26 13.2V219l-2.2 1.7a19.6 19.6 0 0 1-9 2.2 14 14 0 0 1-5.3-1 11 11 0 0 1-6.5-7c-.5-1.6-.8-3.6-.8-5.8v-1.6c0-2.2.3-4.2.9-5.9a11.4 11.4 0 0 1 6.3-7 14.4 14.4 0 0 1 11.3.3c1.6.8 2.9 2 3.7 3.4.9 1.5 1.4 3.1 1.6 5h-6.6a7 7 0 0 0-.7-2.3 4.8 4.8 0 0 0-4.2-2.1c-.8 0-1.5.2-2.2.6-.7.3-1.2.8-1.7 1.6-.5.7-.8 1.5-1 2.6-.3 1-.5 2.3-.5 3.8v1.6c0 1.4.2 2.6.4 3.7.2 1 .6 2 1 2.7.6.7 1.2 1.2 2 1.6a8.6 8.6 0 0 0 4.6.4l1.2-.5.8-.6V212h-4.7v-4.7h11.6Zm16-7.3-6.9 22.5h-7.3l10.4-28.4h4.7l-.9 6Zm5.8 22.5-7-22.5-.9-6h4.8l10.5 28.5h-7.4Zm-.3-10.6v5.3h-14.6v-5.3H546Zm21.2-17.8v28.4h-6.9v-28.4h6.9Zm8.5 0v5.3H552V194h23.7Zm26.5 13.6v1.2c0 2.1-.3 4-1 5.8a11.3 11.3 0 0 1-11.5 8.2 11.5 11.5 0 0 1-11.6-8.2c-.5-1.7-.8-3.7-.8-5.8v-1.2c0-2.2.3-4.1.9-5.8a13 13 0 0 1 2.6-4.5 11 11 0 0 1 3.9-2.8 13.1 13.1 0 0 1 10 0 11 11 0 0 1 4 2.8 15.2 15.2 0 0 1 3.5 10.3Zm-7 1.2v-1.2c0-1.4-.1-2.7-.4-3.7-.2-1.1-.5-2-1-2.8a4.6 4.6 0 0 0-4-2.2c-1 0-1.8.2-2.5.6-.6.4-1.2 1-1.7 1.7-.4.7-.8 1.6-1 2.7-.2 1-.3 2.3-.3 3.7v1.2c0 1.4 0 2.6.3 3.7.2 1 .6 2 1 2.7.5.7 1 1.3 1.8 1.7a5 5 0 0 0 2.4.5 6 6 0 0 0 2.3-.5c.7-.4 1.2-1 1.7-1.7s.8-1.7 1-2.7c.3-1.1.4-2.3.4-3.7Zm19.3 12.6c0-.3.2-.5.4-.7.3-.2.5-.4.8-.4.3 0 .5.2.7.4.2.2.3.5.3.8 0 .2-.2.5-.5.7-.2.2-.5.3-.8.3a.9.9 0 0 1-.7-.3 1 1 0 0 1-.2-.8Zm17 1h-6.9l.2-1h6.6c2.2 0 4-.6 5.8-1.7a15.2 15.2 0 0 0 6.6-9.8l.6-3.5c.3-1.5.3-2.9 0-4.2a9.5 9.5 0 0 0-1.4-3.6c-.7-1.1-1.6-2-2.7-2.6-1.2-.6-2.5-1-4.1-1h-7l.2-1h6.8c1.7 0 3.2.3 4.5 1a9.4 9.4 0 0 1 4.7 6.8c.3 1.5.3 3 0 4.6l-.5 3.5a16.5 16.5 0 0 1-4.5 8.8 12.6 12.6 0 0 1-9 3.8Zm-1.9-28.4-4.9 28.4h-1l4.9-28.4h1Zm36.4 27.3-.1 1.1h-16.5l.2-1h16.4Zm-11-27.3-4.9 28.4h-1l4.9-28.4h1Zm11.6 13.2-.2 1.1h-14.5l.1-1h14.6Zm4.2-13.2-.2 1h-16.4l.1-1h16.5Zm9.4 25.6 13.2-25.6h1.2l-14.7 28.4h-1l1.3-2.8Zm-6.4-25.7 5.3 25.8.5 2.7h-1l-6-28.5h1.2Z" />
</svg>